<?xml version="1.0" encoding="UTF-8"?>
<svg width="512" height="512" viewBox="0 0 512 512" fill="none" xmlns="http://www.w3.org/2000/svg">
  <rect width="512" height="512" rx="128" fill="#7C3AED"/>
  <path d="M256 96C176.5 96 112 160.5 112 240C112 319.5 176.5 384 256 384C335.5 384 400 319.5 400 240C400 160.5 335.5 96 256 96ZM256 352C194.1 352 144 301.9 144 240C144 178.1 194.1 128 256 128C317.9 128 368 178.1 368 240C368 301.9 317.9 352 256 352Z" fill="white"/>
  <path d="M272 176H240V256H320V224H272V176Z" fill="white"/>
  <circle cx="200" cy="200" r="24" fill="#10B981"/>
  <circle cx="312" cy="312" r="24" fill="#EF4444"/>
  <path d="M256 172C235.2 172 218 189.2 218 210C218 230.8 235.2 248 256 248C276.8 248 294 230.8 294 210C294 189.2 276.8 172 256 172ZM256 236C241.7 236 230 224.3 230 210C230 195.7 241.7 184 256 184C270.3 184 282 195.7 282 210C282 224.3 270.3 236 256 236Z" fill="#F59E0B"/>
</svg>